# xmcd
#
# Track frame offsets: 
#        150
#        619
#        16810
#        36965
#        55095
#        67737
#        83506
#        103745
#        119142
#        140689
#        160067
#
# Disc length: 2143 seconds
#
# Revision: 0
# Processed by: cddbd v1.5.2PL0 Copyright (c) Steve Scherf et al.
# Submitted via: ExactAudioCopy v1.3
#
DISCID=85085d0b
DTITLE=Foxy Lady (feat. Ice Mike) - Everyday I Have the Blues
DYEAR=2019
DGENRE=Blues
TTITLE0=Intro
TTITLE1=Everyday I Have the Blues
TTITLE2=How Could You Do It to Me
TTITLE3=Don't Treat Me Like You Use To
TTITLE4=Feel so Bad
TTITLE5=Woke up This Morning
TTITLE6=Howlin'
TTITLE7=Knock on Wood
TTITLE8=Drivin' Wheel
TTITLE9=Like My Style
TTITLE10=Outro
EXTD=
EXTT0=
EXTT1=
EXTT2=
EXTT3=
EXTT4=
EXTT5=
EXTT6=
EXTT7=
EXTT8=
EXTT9=
EXTT10=
PLAYORDER=
